<svg width="36" height="36" viewBox="0 0 36 36" fill="none" xmlns="http://www.w3.org/2000/svg">
<path d="M34.3268 17.2448C34.2017 17.0249 34.034 16.832 33.8337 16.6775C33.6333 16.523 33.4041 16.4099 33.1596 16.3448C32.0504 16.0612 30.9014 15.9661 29.7607 16.0636C30.4174 13.1625 29.9885 10.8731 29.5568 9.53858C29.4061 9.06714 29.0853 8.6687 28.6569 8.42093C28.2284 8.17317 27.723 8.09385 27.2393 8.19842C25.7377 8.5352 24.3162 9.16141 23.0543 10.042C22.176 8.13147 20.8482 6.46202 19.1843 5.17639C18.8429 4.91914 18.427 4.78 17.9995 4.78C17.572 4.78 17.1562 4.91914 16.8148 5.17639C15.1517 6.46259 13.8245 8.13192 12.9462 10.042C11.6839 9.16108 10.2618 8.53486 8.75975 8.19842C8.276 8.09397 7.77069 8.17354 7.34244 8.4216C6.91419 8.66965 6.59375 9.06839 6.44366 9.53998C6.01194 10.8745 5.58304 13.1639 6.23975 16.065C5.09903 15.9675 3.95004 16.0626 2.84085 16.3462C2.59631 16.4113 2.36717 16.5244 2.16679 16.6789C1.9664 16.8334 1.79876 17.0263 1.67366 17.2462C1.54218 17.4723 1.45706 17.7223 1.42325 17.9816C1.38945 18.2409 1.40765 18.5043 1.47679 18.7565C1.94225 20.4834 3.37522 23.7656 7.72335 26.3686C12.0715 28.9715 15.9316 28.9687 18.0002 28.9687C20.0688 28.9687 23.9233 28.9687 28.2743 26.3686C32.6252 23.7684 34.0554 20.4834 34.5208 18.7551C34.5904 18.5031 34.6091 18.2398 34.5757 17.9805C34.5424 17.7212 34.4578 17.4711 34.3268 17.2448ZM23.6927 11.6578C24.8505 10.7847 26.18 10.1665 27.5937 9.84374C27.6687 9.82841 27.7469 9.8415 27.8128 9.88047C27.8788 9.91944 27.928 9.98152 27.9508 10.0547C28.5049 11.7731 29.0491 15.3281 26.4616 19.8281C25.423 21.603 24.0917 23.1896 22.5241 24.5208C23.6041 22.6406 24.469 20.0995 24.469 16.7583C24.4821 15.0277 24.2201 13.3061 23.6927 11.6578ZM8.0496 10.0589C8.07159 9.98495 8.12042 9.9219 8.1865 9.8821C8.25258 9.84229 8.33114 9.82861 8.40679 9.84374C9.82049 10.1665 11.1499 10.7847 12.3077 11.6578C11.7804 13.3061 11.5183 15.0277 11.5315 16.7583C11.5315 20.0995 12.3963 22.6434 13.4735 24.5165C11.9056 23.1857 10.5743 21.5991 9.536 19.8239C6.95132 15.3281 7.49554 11.7731 8.0496 10.0589ZM8.5896 24.9187C4.75054 22.6251 3.506 19.7972 3.10522 18.3094C3.09471 18.2716 3.09191 18.232 3.09698 18.1932C3.10206 18.1543 3.1149 18.1168 3.13475 18.083C3.16529 18.0287 3.2157 17.9883 3.27538 17.9705C4.41189 17.688 5.59356 17.6369 6.75022 17.82C7.10702 18.808 7.55079 19.7623 8.07632 20.6719C9.51909 23.1616 11.4865 25.3076 13.8419 26.9606C11.985 26.5931 10.2072 25.902 8.5896 24.9187ZM18.0002 27.1209C16.7796 26.249 13.219 23.1553 13.219 16.7583C13.219 10.6608 16.4449 7.56983 17.8315 6.52358C17.8802 6.48707 17.9394 6.46733 18.0002 6.46733C18.0611 6.46733 18.1203 6.48707 18.169 6.52358C19.5555 7.56983 22.7815 10.6608 22.7815 16.7583C22.7815 23.1947 19.2391 26.2505 18.0002 27.1209ZM32.8924 18.315C32.4916 19.7972 31.2471 22.6251 27.408 24.9244C25.7887 25.9056 24.0094 26.5943 22.1515 26.9592C24.5069 25.3062 26.4743 23.1602 27.9171 20.6705C28.445 19.7616 28.8911 18.8077 29.2502 17.82C30.4082 17.6383 31.5908 17.6914 32.7279 17.9761C32.7876 17.9939 32.838 18.0343 32.8685 18.0886C32.8879 18.1226 32.9002 18.1602 32.9048 18.1991C32.9094 18.238 32.9062 18.2774 32.8952 18.315H32.8924Z" fill="#252828"/>
</svg>
