<svg width="28" height="28" viewBox="0 0 28 28" fill="none" xmlns="http://www.w3.org/2000/svg">
<path d="M22.125 9.625V22.125M22.125 22.125V26.5H5.875V22.125M22.125 22.125H26.5V9.625C26.5 7.75 25.25 5.5625 23.375 4C21.5 2.4375 17.75 1.5 17.75 1.5H10.25C10.25 1.5 6.5 2.4375 4.625 4C2.75 5.5625 1.5 7.75 1.5 9.625V22.125H5.875M5.875 22.125V9.625" stroke="#252828" stroke-width="2" stroke-linecap="round" stroke-linejoin="round"/>
<path d="M17.75 1.5C17.75 2.49456 17.3549 3.44839 16.6517 4.15165C15.9484 4.85491 14.9946 5.25 14 5.25C13.0054 5.25 12.0516 4.85491 11.3483 4.15165C10.6451 3.44839 10.25 2.49456 10.25 1.5" stroke="#252828" stroke-width="2" stroke-linecap="round" stroke-linejoin="round"/>
</svg>
