<svg width="36" height="36" viewBox="0 0 36 36" fill="none" xmlns="http://www.w3.org/2000/svg">
<path d="M25.5 14.25V9C29.25 9 29.25 3.75 25.5 3.75H10.5C6.75 3.75 6.75 9 10.5 9V14.25M16.5 8.25L15 9.75M21 8.25L19.5 9.75M5.25 20.25C5.25 18.6587 5.88214 17.1326 7.00736 16.0074C8.13258 14.8821 9.6587 14.25 11.25 14.25H24.75C26.3413 14.25 27.8674 14.8821 28.9926 16.0074C30.1179 17.1326 30.75 18.6587 30.75 20.25V26.25C30.75 27.0456 30.4339 27.8087 29.8713 28.3713C29.3087 28.9339 28.5456 29.25 27.75 29.25H8.25C7.45435 29.25 6.69129 28.9339 6.12868 28.3713C5.56607 27.8087 5.25 27.0456 5.25 26.25V20.25Z" stroke="#252828" stroke-width="2" stroke-linecap="round" stroke-linejoin="round"/>
<path d="M18 24.75C19.6569 24.75 21 23.4069 21 21.75C21 20.0931 19.6569 18.75 18 18.75C16.3431 18.75 15 20.0931 15 21.75C15 23.4069 16.3431 24.75 18 24.75Z" stroke="#252828" stroke-width="2"/>
<path d="M11.25 29.25V32.25M24.75 29.25V32.25" stroke="#252828" stroke-width="2" stroke-linecap="round" stroke-linejoin="round"/>
</svg>
