<svg width="36" height="27" viewBox="0 0 36 27" fill="none" xmlns="http://www.w3.org/2000/svg">
<path d="M13.5 11.4961V11.1797C13.5 10.3971 14.2031 9.75587 15.2044 9.56655L27.4802 7.10491C27.6883 7.06316 27.9063 7.0578 28.1176 7.08925C28.3288 7.1207 28.5276 7.18812 28.6986 7.28631C28.8696 7.3845 29.0083 7.51083 29.1039 7.65557C29.1995 7.80031 29.2495 7.95958 29.25 8.1211V9.28126" stroke="#252828" stroke-width="2" stroke-linecap="round" stroke-linejoin="round"/>
<path d="M29.25 15.6062V19.825C29.25 20.5585 28.6221 21.1744 27.7031 21.407L26.1562 21.8289C24.3352 22.2887 22.5 21.2794 22.5 19.825C22.4958 19.4514 22.6502 19.0864 22.941 18.7831C23.2317 18.4797 23.6437 18.2536 24.1172 18.1375L27.7031 17.1803C28.6221 16.9483 29.25 16.3398 29.25 15.6062ZM29.25 15.6062V3.05861C29.2495 2.97787 29.2243 2.8983 29.1763 2.82602C29.1283 2.75374 29.0589 2.69069 28.9733 2.64173C28.8877 2.59277 28.7882 2.5592 28.6826 2.54361C28.577 2.52802 28.468 2.53084 28.3641 2.55183L14.3438 5.37892C14.0992 5.43072 13.8842 5.54137 13.7317 5.69382C13.5792 5.84628 13.4978 6.0321 13.5 6.22267V18.1406M13.5 18.1406C13.5 18.8742 12.8721 19.4906 11.9531 19.7227L8.29688 20.6719C7.32094 20.9187 6.75 21.58 6.75 22.3594C6.75 23.8138 8.61469 24.8142 10.4062 24.3633L11.9531 23.9414C12.8721 23.7094 13.5 23.0935 13.5 22.3594V18.1406Z" stroke="#252828" stroke-width="2" stroke-linecap="round" stroke-linejoin="round"/>
</svg>
