<svg width="30" height="30" viewBox="0 0 30 30" fill="none" xmlns="http://www.w3.org/2000/svg">
<rect width="30" height="30" fill="white"/>
<path d="M6 24.0325V24.0334C5.99937 24.7715 6.23089 25.3826 6.70168 25.9151C7.15289 26.4255 7.66932 26.6563 8.3125 26.6563C9.38165 26.6563 10.4402 26.5672 11.4888 26.3891C12.6486 26.1922 13.8192 26.0938 15 26.0938C16.1809 26.0938 17.3514 26.1922 18.5112 26.3891C19.5598 26.5672 20.6184 26.6563 21.6875 26.6563H21.6884C22.3301 26.6568 22.8459 26.4267 23.2971 25.9164C23.7676 25.3842 23.9998 24.7722 24 24.032L6 24.0325ZM6 24.0325C6 23.2022 6.27436 22.4934 6.84932 21.8621C7.58728 21.0519 8.31938 20.252 9.04564 19.4626C9.70052 18.7621 10.2663 17.9985 10.7417 17.1727C11.1427 16.476 11.6212 15.8197 12.1789 15.2036L12.1901 15.1912M6 24.0325L12.1901 15.1912M12.1901 15.1912L12.2009 15.1784M12.1901 15.1912L12.2009 15.1784M12.2009 15.1784C12.5872 14.7219 13.0316 14.3477 13.537 14.0514C13.9861 13.7882 14.4676 13.657 15.0004 13.6563C15.5443 13.6563 16.0336 13.7824 16.4857 14.0318C16.9802 14.3047 17.4172 14.6633 17.7991 15.1147L17.8045 15.121M12.2009 15.1784L17.8045 15.121M17.8045 15.121L17.8099 15.1273M17.8045 15.121L17.8099 15.1273M17.8099 15.1273C18.3508 15.7454 18.8292 16.4119 19.2456 17.1278C19.7292 17.9593 20.2964 18.7344 20.9461 19.4523L20.946 19.4523M17.8099 15.1273L20.946 19.4523M20.946 19.4523L20.952 19.4587M20.946 19.4523L20.952 19.4587M20.952 19.4587C21.6797 20.2489 22.4125 21.0494 23.1503 21.8604M20.952 19.4587L23.1503 21.8604M23.1503 21.8604C23.7247 22.4918 23.9993 23.2011 24 24.0319L23.1503 21.8604ZM5.625 14.1563C5.00806 14.1563 4.52499 13.9545 4.11336 13.5429C3.70173 13.1313 3.5 12.6482 3.5 12.0313C3.5 11.4143 3.70173 10.9312 4.11336 10.5196C4.52499 10.108 5.00806 9.90625 5.625 9.90625C6.24194 9.90625 6.72501 10.108 7.13664 10.5196C7.54827 10.9312 7.75 11.4143 7.75 12.0313C7.75 12.6482 7.54827 13.1313 7.13664 13.5429C6.72501 13.9545 6.24194 14.1563 5.625 14.1563ZM11.25 9.15625C10.6331 9.15625 10.15 8.95452 9.73836 8.54289C9.32673 8.13126 9.125 7.64819 9.125 7.03125C9.125 6.41431 9.32673 5.93124 9.73836 5.51961C10.15 5.10798 10.6331 4.90625 11.25 4.90625C11.8669 4.90625 12.35 5.10798 12.7616 5.51961C13.1733 5.93124 13.375 6.41431 13.375 7.03125C13.375 7.64819 13.1733 8.13126 12.7616 8.54289C12.35 8.95452 11.8669 9.15625 11.25 9.15625ZM18.75 9.15625C18.1331 9.15625 17.65 8.95452 17.2384 8.54289C16.8267 8.13126 16.625 7.64819 16.625 7.03125C16.625 6.41431 16.8267 5.93124 17.2384 5.51961C17.65 5.10798 18.1331 4.90625 18.75 4.90625C19.3669 4.90625 19.85 5.10798 20.2616 5.51961C20.6733 5.93124 20.875 6.41431 20.875 7.03125C20.875 7.64819 20.6733 8.13126 20.2616 8.54289C19.85 8.95452 19.3669 9.15625 18.75 9.15625ZM24.375 14.1563C23.7581 14.1563 23.275 13.9545 22.8634 13.5429C22.4517 13.1313 22.25 12.6482 22.25 12.0313C22.25 11.4143 22.4517 10.9312 22.8634 10.5196C23.275 10.108 23.7581 9.90625 24.375 9.90625C24.9919 9.90625 25.475 10.108 25.8866 10.5196C26.2983 10.9312 26.5 11.4143 26.5 12.0313C26.5 12.6482 26.2983 13.1313 25.8866 13.5429C25.475 13.9545 24.9919 14.1563 24.375 14.1563Z" stroke="#252828" stroke-width="2"/>
</svg>
